<svg width="174" height="30" viewBox="0 0 174 30" fill="none" xmlns="http://www.w3.org/2000/svg">
<mask id="mask0" mask-type="alpha" maskUnits="userSpaceOnUse" x="0" y="0" width="174" height="30">
<path d="M79.3133 1.64C78.3447 1.03831 77.1769 0.845347 76.0662 1.10342C74.9555 1.3615 73.9925 2.04954 73.3883 3.01667L65.1417 16.2167L57.36 3.02833C56.8827 2.22675 56.1575 1.60229 55.294 1.24929C54.4304 0.896293 53.4754 0.833945 52.5733 1.07167C51.9895 1.1814 51.4347 1.41106 50.9442 1.74613C50.4536 2.0812 50.0379 2.5144 49.7233 3.01833L41.48 16.215L33.6967 3.02833C33.2593 2.29283 32.6122 1.70475 31.8383 1.3395C31.0645 0.974246 30.1991 0.848482 29.3533 0.978333C28.7223 1.0306 28.1104 1.2203 27.5605 1.53413C27.0106 1.84796 26.536 2.27831 26.17 2.795C26.0717 2.92167 25.965 3.05833 25.8783 3.19667L14.0117 22.1467C13.406 23.1104 13.2078 24.2752 13.4606 25.385C13.7134 26.4948 14.3966 27.4588 15.36 28.065C16.328 28.6671 17.4951 28.8611 18.6059 28.6047C19.7167 28.3482 20.6806 27.6622 21.2867 26.6967L29.5533 13.5033L37.3167 26.6967C38.2467 28.285 40.0717 29.0367 41.8 28.7133C42.3967 28.6417 42.9817 28.4633 43.5167 28.1417C44.055 27.8183 44.52 27.3767 44.8667 26.9C44.96 26.7667 45.0667 26.6367 45.15 26.4933L53.3917 13.3L61.2633 26.65C62.4683 28.69 65.14 29.335 67.18 28.1283C67.7096 27.8115 68.168 27.3888 68.5267 26.8867C68.6217 26.7683 68.73 26.625 68.8133 26.4867L80.655 7.525C81.9083 5.50833 81.3 2.85833 79.2967 1.60333L79.3133 1.64ZM0 4.75C0.0015471 3.61311 0.454661 2.52339 1.25966 1.72058C2.06466 0.917765 3.15561 0.46762 4.2925 0.469167C5.42939 0.470714 6.51911 0.923827 7.32192 1.72883C8.12473 2.53383 8.57488 3.62477 8.57333 4.76167V24.32C8.57333 25.4569 8.1217 26.5472 7.3178 27.3511C6.51389 28.155 5.42356 28.6067 4.28667 28.6067C3.14977 28.6067 2.05944 28.155 1.25554 27.3511C0.45163 26.5472 0 25.4569 0 24.32L0 4.75ZM146.457 1.51667C145.488 0.913769 144.321 0.719423 143.209 0.97624C142.098 1.23306 141.134 1.92008 140.528 2.88667L132.263 16.075L124.502 2.875C123.302 0.828333 120.652 0.166667 118.607 1.36833C117.623 1.94704 116.909 2.89175 116.621 3.99565C116.333 5.09955 116.494 6.27272 117.068 7.25833L128.398 26.525C129.603 28.5683 132.275 29.225 134.315 28.0183C134.863 27.7017 135.328 27.2667 135.662 26.785C135.757 26.66 135.865 26.5233 135.96 26.385L147.827 7.42333C148.127 6.94602 148.331 6.41419 148.425 5.85823C148.52 5.30227 148.505 4.73307 148.379 4.18315C148.254 3.63323 148.022 3.11338 147.696 2.65328C147.369 2.19318 146.956 1.80186 146.478 1.50167L146.457 1.515V1.51667ZM84.1983 14.7933V14.6867C84.195 6.77 90.555 0.358333 99.1217 0.358333C107.638 0.358333 113.947 6.675 113.947 14.5817V14.6833C113.947 22.5933 107.585 29.0117 99.015 29.0117C90.4983 29.0117 84.19 22.695 84.19 14.785L84.1983 14.7933ZM106.252 14.785V14.685C106.252 10.6267 103.33 7.08333 99.025 7.08333C94.5633 7.08333 91.8917 10.5217 91.8917 14.5817V14.6833C91.8917 18.74 94.815 22.2833 99.12 22.2833C103.592 22.2833 106.253 18.845 106.253 14.785H106.252ZM173.013 7.16333C172.417 4.84333 171.03 2.98 168.897 1.62167C167.205 0.55 165.513 0 163.87 0C163.262 0 162.642 0.0766667 162.08 0.216667C159.803 0.668333 157.967 1.975 156.618 4.09833C155.163 6.38667 154.913 9.08167 155.855 12.115C152.725 12.4033 150.37 13.76 148.843 16.1567C147.495 18.2917 147.102 20.5367 147.698 22.8283C148.29 25.1167 149.682 26.9717 151.837 28.34C153.565 29.44 155.308 30 157.023 30C157.585 30 158.153 29.94 158.712 29.8217C160.97 29.3433 162.807 28.0133 164.17 25.865C164.955 24.6317 165.347 23.2067 165.333 21.6583C165.362 20.495 165.19 19.28 164.808 17.9717C168.052 17.6133 170.467 16.21 172 13.7933C173.312 11.725 173.658 9.49333 173.028 7.17333L173.013 7.16333ZM166.583 8.73167C166.768 9.32833 166.683 9.75833 166.312 10.3433C165.74 11.2517 164.452 11.585 162.495 11.585H162.412C161.602 10.805 161.47 8.58167 162.03 7.69333C162.388 7.12667 162.865 6.845 163.522 6.67333C163.653 6.65 163.772 6.67333 163.903 6.67333C164.403 6.67333 164.882 6.84 165.382 7.15C166.015 7.55667 166.408 8.05833 166.61 8.72667L166.583 8.73167ZM154.207 21.1917C154.04 20.595 154.135 20.0333 154.507 19.4483C154.833 18.9126 155.347 18.517 155.948 18.3383C156.545 18.1517 157.248 18.06 158.095 18.06H158.357C159.212 19.8267 159.357 21.1733 158.785 22.0717C158.41 22.6633 157.943 23.015 157.318 23.1817C157.191 23.2054 157.061 23.2177 156.932 23.2183C156.465 23.2183 155.988 23.06 155.477 22.735C154.808 22.3117 154.403 21.8017 154.223 21.175L154.207 21.1917Z" fill="white"/>
</mask>
<g mask="url(#mask0)">
<path d="M79.3133 1.64C78.3447 1.03831 77.1769 0.845347 76.0662 1.10342C74.9555 1.3615 73.9925 2.04954 73.3883 3.01667L65.1417 16.2167L57.36 3.02833C56.8827 2.22675 56.1575 1.60229 55.294 1.24929C54.4304 0.896293 53.4754 0.833945 52.5733 1.07167C51.9895 1.1814 51.4347 1.41106 50.9442 1.74613C50.4536 2.0812 50.0379 2.5144 49.7233 3.01833L41.48 16.215L33.6967 3.02833C33.2593 2.29283 32.6122 1.70475 31.8383 1.3395C31.0645 0.974246 30.1991 0.848482 29.3533 0.978333C28.7223 1.0306 28.1104 1.2203 27.5605 1.53413C27.0106 1.84796 26.536 2.27831 26.17 2.795C26.0717 2.92167 25.965 3.05833 25.8783 3.19667L14.0117 22.1467C13.406 23.1104 13.2078 24.2752 13.4606 25.385C13.7134 26.4948 14.3966 27.4588 15.36 28.065C16.328 28.6671 17.4951 28.8611 18.6059 28.6047C19.7167 28.3482 20.6806 27.6622 21.2867 26.6967L29.5533 13.5033L37.3167 26.6967C38.2467 28.285 40.0717 29.0367 41.8 28.7133C42.3967 28.6417 42.9817 28.4633 43.5167 28.1417C44.055 27.8183 44.52 27.3767 44.8667 26.9C44.96 26.7667 45.0667 26.6367 45.15 26.4933L53.3917 13.3L61.2633 26.65C62.4683 28.69 65.14 29.335 67.18 28.1283C67.7096 27.8115 68.168 27.3888 68.5267 26.8867C68.6217 26.7683 68.73 26.625 68.8133 26.4867L80.655 7.525C81.9083 5.50833 81.3 2.85833 79.2967 1.60333L79.3133 1.64ZM0 4.75C0.0015471 3.61311 0.454661 2.52339 1.25966 1.72058C2.06466 0.917765 3.15561 0.46762 4.2925 0.469167C5.42939 0.470714 6.51911 0.923827 7.32192 1.72883C8.12473 2.53383 8.57488 3.62477 8.57333 4.76167V24.32C8.57333 25.4569 8.1217 26.5472 7.3178 27.3511C6.51389 28.155 5.42356 28.6067 4.28667 28.6067C3.14977 28.6067 2.05944 28.155 1.25554 27.3511C0.45163 26.5472 0 25.4569 0 24.32L0 4.75ZM146.457 1.51667C145.488 0.913769 144.321 0.719423 143.209 0.97624C142.098 1.23306 141.134 1.92008 140.528 2.88667L132.263 16.075L124.502 2.875C123.302 0.828333 120.652 0.166667 118.607 1.36833C117.623 1.94704 116.909 2.89175 116.621 3.99565C116.333 5.09955 116.494 6.27272 117.068 7.25833L128.398 26.525C129.603 28.5683 132.275 29.225 134.315 28.0183C134.863 27.7017 135.328 27.2667 135.662 26.785C135.757 26.66 135.865 26.5233 135.96 26.385L147.827 7.42333C148.127 6.94602 148.331 6.41419 148.425 5.85823C148.52 5.30227 148.505 4.73307 148.379 4.18315C148.254 3.63323 148.022 3.11338 147.696 2.65328C147.369 2.19318 146.956 1.80186 146.478 1.50167L146.457 1.515V1.51667ZM84.1983 14.7933V14.6867C84.195 6.77 90.555 0.358333 99.1217 0.358333C107.638 0.358333 113.947 6.675 113.947 14.5817V14.6833C113.947 22.5933 107.585 29.0117 99.015 29.0117C90.4983 29.0117 84.19 22.695 84.19 14.785L84.1983 14.7933ZM106.252 14.785V14.685C106.252 10.6267 103.33 7.08333 99.025 7.08333C94.5633 7.08333 91.8917 10.5217 91.8917 14.5817V14.6833C91.8917 18.74 94.815 22.2833 99.12 22.2833C103.592 22.2833 106.253 18.845 106.253 14.785H106.252ZM173.013 7.16333C172.417 4.84333 171.03 2.98 168.897 1.62167C167.205 0.55 165.513 0 163.87 0C163.262 0 162.642 0.0766667 162.08 0.216667C159.803 0.668333 157.967 1.975 156.618 4.09833C155.163 6.38667 154.913 9.08167 155.855 12.115C152.725 12.4033 150.37 13.76 148.843 16.1567C147.495 18.2917 147.102 20.5367 147.698 22.8283C148.29 25.1167 149.682 26.9717 151.837 28.34C153.565 29.44 155.308 30 157.023 30C157.585 30 158.153 29.94 158.712 29.8217C160.97 29.3433 162.807 28.0133 164.17 25.865C164.955 24.6317 165.347 23.2067 165.333 21.6583C165.362 20.495 165.19 19.28 164.808 17.9717C168.052 17.6133 170.467 16.21 172 13.7933C173.312 11.725 173.658 9.49333 173.028 7.17333L173.013 7.16333ZM166.583 8.73167C166.768 9.32833 166.683 9.75833 166.312 10.3433C165.74 11.2517 164.452 11.585 162.495 11.585H162.412C161.602 10.805 161.47 8.58167 162.03 7.69333C162.388 7.12667 162.865 6.845 163.522 6.67333C163.653 6.65 163.772 6.67333 163.903 6.67333C164.403 6.67333 164.882 6.84 165.382 7.15C166.015 7.55667 166.408 8.05833 166.61 8.72667L166.583 8.73167ZM154.207 21.1917C154.04 20.595 154.135 20.0333 154.507 19.4483C154.833 18.9126 155.347 18.517 155.948 18.3383C156.545 18.1517 157.248 18.06 158.095 18.06H158.357C159.212 19.8267 159.357 21.1733 158.785 22.0717C158.41 22.6633 157.943 23.015 157.318 23.1817C157.191 23.2054 157.061 23.2177 156.932 23.2183C156.465 23.2183 155.988 23.06 155.477 22.735C154.808 22.3117 154.403 21.8017 154.223 21.175L154.207 21.1917Z" fill="white"/>
<path fill-rule="evenodd" clip-rule="evenodd" d="M0 -5H173.333V35H0V-5Z" fill="#EC6833"/>
</g>
</svg>
