<?xml version="1.0" encoding="UTF-8"?>
<svg fill="none" viewBox="0 0 1440 48" xmlns="http://www.w3.org/2000/svg">
<rect width="1440" height="48" fill="url(#i)"/>
<g opacity=".5">
<mask id="m" x="0" y="0" width="1440" height="48" mask-type="alpha" maskUnits="userSpaceOnUse">
<rect width="1440" height="48" fill="url(#a)"/>
</mask>
<g mask="url(#m)">
<mask id="l" x="-29" y="-435" width="1499" height="919" mask-type="alpha" maskUnits="userSpaceOnUse">
<rect transform="rotate(-90 -28.319 483.33)" x="-28.319" y="483.33" width="918.21" height="1497.6" rx="33.933" fill="url(#h)"/>
</mask>
<g clip-rule="evenodd" fill-rule="evenodd" mask="url(#l)">
<path d="m1852.9 1145.2-1242.9-2003.2 252.96-418.04 1245.3 2000.8-255.39 420.46z" fill="url(#g)" opacity=".5"/>
<path d="m408.85 732.09-728.85-1174.7 148.34-245.14 730.28 1173.3-149.76 246.56z" fill="url(#f)" opacity=".5"/>
<path d="m258.85 732.09-728.85-1174.7 148.34-245.14 730.28 1173.3-149.76 246.56z" fill="#CFE8FF"/>
<path d="m1769.2 731.84-728.85-1174.7 148.34-245.14 730.28 1173.3-149.77 246.56z" fill="url(#e)"/>
</g>
</g>
</g>
<g opacity=".5">
<mask id="k" x="0" y="0" width="1440" height="48" mask-type="alpha" maskUnits="userSpaceOnUse">
<rect width="1440" height="48" fill="url(#a)"/>
</mask>
<g mask="url(#k)">
<mask id="j" x="0" y="-433" width="1995" height="919" mask-type="alpha" maskUnits="userSpaceOnUse">
<rect transform="rotate(-90 6.1035e-5 485.33)" x="6.1035e-5" y="485.33" width="918.21" height="1995" fill="url(#d)"/>
</mask>
<g clip-rule="evenodd" fill-rule="evenodd" mask="url(#j)">
<path d="m58.561 154.26-91.167-165.04 29.636-25.283 91.43 164.91-29.899 25.412z" fill="url(#c)"/>
<path d="m34.266 149.68-91.167-165.04 29.636-25.283 91.43 164.91-29.899 25.412z" fill="#155BFB"/>
<path d="m1474.2 128.63-183.6-303.92 53.93-49.74 184.08 303.66-54.41 50.001z" fill="url(#b)" opacity=".5"/>
<path d="m1550.7 225.85-250.22-414.2 73.49-67.787 250.88 413.84-74.15 68.143z" fill="#155BFB"/>
</g>
</g>
</g>
<defs>
<linearGradient id="i" x1="1240.5" x2="353.5" y1="-42" y2="90" gradientUnits="userSpaceOnUse">
<stop stop-color="#fff" offset="0"/>
<stop stop-color="#F9FDFF" offset="1"/>
</linearGradient>
<linearGradient id="a" x1="1.2113e-6" x2="1440" y1="32.151" y2="21.662" gradientUnits="userSpaceOnUse">
<stop stop-color="#0025AA" offset="0"/>
<stop stop-color="#002882" offset="1"/>
</linearGradient>
<linearGradient id="h" x1="-201.5" x2="1688.1" y1="2295.4" y2="1172.7" gradientUnits="userSpaceOnUse">
<stop stop-color="#B398FF" offset="0"/>
<stop stop-color="#5200FF" offset="1"/>
</linearGradient>
<linearGradient id="g" x1="587.17" x2="2219" y1="-802.04" y2="654.46" gradientUnits="userSpaceOnUse">
<stop stop-color="#54ADFF" stop-opacity="0" offset="0"/>
<stop stop-color="#84E9FF" offset="1"/>
</linearGradient>
<linearGradient id="f" x1="-550.54" x2="547.09" y1="-822.65" y2="503.25" gradientUnits="userSpaceOnUse">
<stop stop-color="#CFE8FF" stop-opacity="0" offset="0"/>
<stop stop-color="#88DBFF" offset="1"/>
</linearGradient>
<linearGradient id="e" x1="809.78" x2="1907.4" y1="-822.9" y2="503" gradientUnits="userSpaceOnUse">
<stop stop-color="#CFE8FF" stop-opacity="0" offset="0"/>
<stop stop-color="#88DBFF" offset="1"/>
</linearGradient>
<linearGradient id="d" x1="-173.19" x2="1959.2" y1="2899.2" y2="1948.2" gradientUnits="userSpaceOnUse">
<stop stop-color="#B398FF" offset="0"/>
<stop stop-color="#5200FF" offset="1"/>
</linearGradient>
<linearGradient id="c" x1="-61.249" x2="23.659" y1="-64.02" y2="154.9" gradientUnits="userSpaceOnUse">
<stop stop-color="#CFE8FF" stop-opacity="0" offset="0"/>
<stop stop-color="#88DBFF" offset="1"/>
</linearGradient>
<linearGradient id="b" x1="1285.4" x2="1465.5" y1="-168.34" y2="124.11" gradientUnits="userSpaceOnUse">
<stop stop-color="#54ADFF" stop-opacity="0" offset="0"/>
<stop stop-color="#84E9FF" offset="1"/>
</linearGradient>
</defs>
</svg>
